<svg width="403" height="383" viewBox="0 0 403 383" fill="none" xmlns="http://www.w3.org/2000/svg">
<path d="M201.211 12L246.114 150.197H391.423L273.866 235.607L318.768 373.803L201.211 288.393L83.6543 373.803L128.557 235.607L11 150.197H156.309L201.211 12Z" fill="#FCFCFC"/>
<path d="M201.423 12L156.52 150.197H11.2113L128.768 235.607L83.8656 373.803L201.423 288.393V12Z" fill="#D6CCC2"/>
<path d="M390.423 151.077L391.634 150.197H390.423V151.077Z" fill="#D6CCC2"/>
<path d="M201.211 12L204.54 10.9184L201.211 0.673763L197.883 10.9184L201.211 12ZM246.114 150.197L242.785 151.278L243.571 153.697H246.114V150.197ZM391.423 150.197L393.48 153.028L402.194 146.697H391.423V150.197ZM273.866 235.607L271.808 232.775L269.751 234.27L270.537 236.688L273.866 235.607ZM318.768 373.803L316.711 376.635L325.426 382.967L322.097 372.722L318.768 373.803ZM201.211 288.393L203.269 285.562L201.211 284.067L199.154 285.562L201.211 288.393ZM83.6543 373.803L80.3256 372.722L76.9969 382.967L85.7115 376.635L83.6543 373.803ZM128.557 235.607L131.886 236.688L132.672 234.27L130.614 232.775L128.557 235.607ZM11 150.197V146.697H0.228109L8.94275 153.028L11 150.197ZM156.309 150.197V153.697H158.851L159.637 151.278L156.309 150.197ZM201.423 12H204.923L198.094 10.9184L201.423 12ZM156.52 150.197V153.697H159.063L159.849 151.278L156.52 150.197ZM11.2113 150.197V146.697H0.439412L9.15406 153.028L11.2113 150.197ZM128.768 235.607L132.097 236.688L132.883 234.27L130.826 232.775L128.768 235.607ZM83.8656 373.803L80.5369 372.722L77.2082 382.967L85.9228 376.635L83.8656 373.803ZM201.423 288.393L203.48 291.225L204.923 290.177V288.393H201.423ZM390.423 151.077H386.923V157.946L392.48 153.908L390.423 151.077ZM391.634 150.197L393.691 153.028L402.406 146.697H391.634V150.197ZM390.423 150.197V146.697H386.923V150.197H390.423ZM197.883 13.0816L242.785 151.278L249.443 149.115L204.54 10.9184L197.883 13.0816ZM246.114 153.697H391.423V146.697H246.114V153.697ZM389.365 147.365L271.808 232.775L275.923 238.438L393.48 153.028L389.365 147.365ZM270.537 236.688L315.44 374.885L322.097 372.722L277.194 234.525L270.537 236.688ZM320.826 370.972L203.269 285.562L199.154 291.225L316.711 376.635L320.826 370.972ZM199.154 285.562L81.597 370.972L85.7115 376.635L203.269 291.225L199.154 285.562ZM86.9829 374.885L131.886 236.688L125.228 234.525L80.3256 372.722L86.9829 374.885ZM130.614 232.775L13.0572 147.365L8.94275 153.028L126.5 238.438L130.614 232.775ZM11 153.697H156.309V146.697H11V153.697ZM159.637 151.278L204.54 13.0816L197.883 10.9184L152.98 149.115L159.637 151.278ZM198.094 10.9184L153.191 149.115L159.849 151.278L204.751 13.0816L198.094 10.9184ZM156.52 146.697H11.2113V153.697H156.52V146.697ZM9.15406 153.028L126.711 238.438L130.826 232.775L13.2686 147.365L9.15406 153.028ZM125.44 234.525L80.5369 372.722L87.1943 374.885L132.097 236.688L125.44 234.525ZM85.9228 376.635L203.48 291.225L199.365 285.562L81.8083 370.972L85.9228 376.635ZM204.923 288.393V12H197.923V288.393H204.923ZM392.48 153.908L393.691 153.028L389.577 147.365L388.365 148.245L392.48 153.908ZM391.634 146.697H390.423V153.697H391.634V146.697ZM386.923 150.197V151.077H393.923V150.197H386.923Z" fill="#D6CCC2"/>
</svg>
