<svg width="402" height="383" viewBox="0 0 402 383" fill="none" xmlns="http://www.w3.org/2000/svg">
<path d="M201 12L245.903 150.197H391.211L273.654 235.607L318.557 373.803L201 288.393L83.4429 373.803L128.346 235.607L10.7887 150.197H156.097L201 12Z" fill="#FCFCFC"/>
<path d="M158 145L156.309 150.206H11L128.557 235.616L83.6543 373.813L158 319.797V145Z" fill="#D6CCC2"/>
<path d="M201 12L204.329 10.9184L201 0.673763L197.671 10.9184L201 12ZM245.903 150.197L242.574 151.278L243.36 153.697H245.903V150.197ZM391.211 150.197L393.269 153.028L401.983 146.697H391.211V150.197ZM273.654 235.607L271.597 232.775L269.54 234.27L270.326 236.688L273.654 235.607ZM318.557 373.803L316.5 376.635L325.214 382.967L321.886 372.722L318.557 373.803ZM201 288.393L203.057 285.562L201 284.067L198.943 285.562L201 288.393ZM83.4429 373.803L80.1142 372.722L76.7856 382.967L85.5002 376.635L83.4429 373.803ZM128.346 235.607L131.674 236.688L132.46 234.27L130.403 232.775L128.346 235.607ZM10.7887 150.197V146.697H0.0168049L8.73145 153.028L10.7887 150.197ZM156.097 150.197V153.697H158.64L159.426 151.278L156.097 150.197ZM158 145H161.5L154.671 143.918L158 145ZM156.309 150.206V153.706H158.851L159.637 151.287L156.309 150.206ZM11 150.206V146.706H0.228109L8.94275 153.037L11 150.206ZM128.557 235.616L131.886 236.698L132.672 234.279L130.614 232.785L128.557 235.616ZM83.6543 373.813L80.3256 372.731L76.9969 382.976L85.7115 376.644L83.6543 373.813ZM158 319.797L160.057 322.629L161.5 321.581V319.797H158ZM197.671 13.0816L242.574 151.278L249.231 149.115L204.329 10.9184L197.671 13.0816ZM245.903 153.697H391.211V146.697H245.903V153.697ZM389.154 147.365L271.597 232.775L275.712 238.438L393.269 153.028L389.154 147.365ZM270.326 236.688L315.228 374.885L321.886 372.722L276.983 234.525L270.326 236.688ZM320.614 370.972L203.057 285.562L198.943 291.225L316.5 376.635L320.614 370.972ZM198.943 285.562L81.3857 370.972L85.5002 376.635L203.057 291.225L198.943 285.562ZM86.7716 374.885L131.674 236.688L125.017 234.525L80.1142 372.722L86.7716 374.885ZM130.403 232.775L12.8459 147.365L8.73145 153.028L126.288 238.438L130.403 232.775ZM10.7887 153.697H156.097V146.697H10.7887V153.697ZM159.426 151.278L204.329 13.0816L197.671 10.9184L152.769 149.115L159.426 151.278ZM154.671 143.918L152.98 149.124L159.637 151.287L161.329 146.082L154.671 143.918ZM156.309 146.706H11V153.706H156.309V146.706ZM8.94275 153.037L126.5 238.448L130.614 232.785L13.0572 147.374L8.94275 153.037ZM125.228 234.535L80.3256 372.731L86.9829 374.894L131.886 236.698L125.228 234.535ZM85.7115 376.644L160.057 322.629L155.943 316.966L81.597 370.981L85.7115 376.644ZM161.5 319.797V145H154.5V319.797H161.5Z" fill="#D6CCC2"/>
</svg>
