<svg width="406" height="386" viewBox="0 0 406 386" fill="none" xmlns="http://www.w3.org/2000/svg">
<path d="M203.211 13L248.114 151.197H393.423L275.866 236.607L320.768 374.803L203.211 289.393L85.6543 374.803L130.557 236.607L13 151.197H158.309L203.211 13Z" fill="#FCFCFC"/>
<path d="M248.114 151.197L203.423 13L158.52 151.197H13.2113L130.768 236.607L85.8656 374.803L203.423 289.393L251.5 324.477L248.114 151.197Z" fill="#D6CCC2"/>
<path d="M203.211 13L207.016 11.7639L203.211 0.0557297L199.407 11.7639L203.211 13ZM393.423 151.197L395.774 154.433L405.733 147.197H393.423V151.197ZM275.866 236.607L273.514 233.371L271.163 235.079L272.061 237.843L275.866 236.607ZM320.768 374.803L318.417 378.039L328.377 385.276L324.573 373.567L320.768 374.803ZM203.211 289.393L205.562 286.157L203.211 284.449L200.86 286.157L203.211 289.393ZM85.6543 374.803L81.85 373.567L78.0458 385.276L88.0054 378.039L85.6543 374.803ZM130.557 236.607L134.361 237.843L135.259 235.079L132.908 233.371L130.557 236.607ZM13 151.197V147.197H0.689267L10.6489 154.433L13 151.197ZM158.309 151.197V155.197H161.215L162.113 152.433L158.309 151.197ZM203.423 13L207.229 11.7692L203.432 0.0281103L199.618 11.7639L203.423 13ZM158.52 151.197V155.197H161.426L162.324 152.433L158.52 151.197ZM13.2113 151.197V147.197H0.900571L10.8602 154.433L13.2113 151.197ZM130.768 236.607L134.573 237.843L135.471 235.079L133.119 233.371L130.768 236.607ZM85.8656 374.803L82.0613 373.567L78.2571 385.276L88.2167 378.039L85.8656 374.803ZM203.423 289.393L205.78 286.162L203.428 284.445L201.071 286.157L203.423 289.393ZM251.5 324.477L249.142 327.708L255.657 332.462L255.499 324.399L251.5 324.477ZM199.407 14.2361L244.31 152.433L251.918 149.961L207.016 11.7639L199.407 14.2361ZM248.114 155.197H393.423V147.197H248.114V155.197ZM391.071 147.961L273.514 233.371L278.217 239.843L395.774 154.433L391.071 147.961ZM272.061 237.843L316.964 376.039L324.573 373.567L279.67 235.371L272.061 237.843ZM323.12 371.567L205.562 286.157L200.86 292.629L318.417 378.039L323.12 371.567ZM200.86 286.157L83.3031 371.567L88.0054 378.039L205.562 292.629L200.86 286.157ZM89.4585 376.039L134.361 237.843L126.753 235.371L81.85 373.567L89.4585 376.039ZM132.908 233.371L15.3511 147.961L10.6489 154.433L128.206 239.843L132.908 233.371ZM13 155.197H158.309V147.197H13V155.197ZM162.113 152.433L207.016 14.2361L199.407 11.7639L154.504 149.961L162.113 152.433ZM251.92 149.966L207.229 11.7692L199.617 14.2308L244.308 152.427L251.92 149.966ZM199.618 11.7639L154.716 149.961L162.324 152.433L207.227 14.2361L199.618 11.7639ZM158.52 147.197H13.2113V155.197H158.52V147.197ZM10.8602 154.433L128.417 239.843L133.119 233.371L15.5624 147.961L10.8602 154.433ZM126.964 235.371L82.0613 373.567L89.6698 376.039L134.573 237.843L126.964 235.371ZM88.2167 378.039L205.774 292.629L201.071 286.157L83.5144 371.567L88.2167 378.039ZM201.065 292.624L249.142 327.708L253.858 321.246L205.78 286.162L201.065 292.624ZM255.499 324.399L252.113 151.118L244.115 151.275L247.501 324.555L255.499 324.399Z" fill="#D6CCC2"/>
</svg>
